<svg data-name="Layer 1" xmlns="http://www.w3.org/2000/svg" viewBox="0 0 410.68 105.3"><path d="M327.68 26.47c-23.18 0-40.77 16.88-40.77 39.63 0 22.6 16.88 39.2 40.77 39.2s41.2-16.88 41.2-39.49-17.02-39.34-41.2-39.34zm.13 56.42c-9.91 0-16.91-7.16-16.91-16.91s7.3-17.1 16.91-17.1c10 0 17.1 7.16 17.1 17s-7.25 17.01-17.1 17.01zM41.58 24.7C18.4 24.7.81 41.61.81 64.36s16.88 39.2 40.78 39.2c23.74 0 41.22-16.86 41.22-39.49S65.75 24.7 41.58 24.7zm.12 56.42c-9.89.03-16.89-7.13-16.89-16.88s7.3-17.1 16.92-17.1c10 0 17.1 7.16 17.1 17S51.56 81.15 41.7 81.15z"/><path fill="#f90e06" d="M284.57 28.33h-24.84l-21.31 75.11h20.83l25.32-75.11z"/><path d="M115.14 71.97c.56 6.52 6.81 12.08 15.42 12.08a18.8 18.8 0 0015.25-7.78l15.28 11.81c-2.08 4.3-12.08 16.11-31 16.11-24 0-38.76-16.53-38.76-38.06s14.48-38.43 35.9-38.43c23.2 0 35.84 14.86 35.84 39.72 0 1.39 0 2.92-.14 4.59zm.7-14.73h23.61c-.28-5.83-4.58-10.83-11.8-10.83-7.64 0-11.26 5.69-11.84 10.83z"/><path fill="#0663f9" d="M173.3 0h23.89v103.44H173.3z"/><path d="M238.42 103.44h-6.93l-25.75-75.11h25.61l14.16 49.78M0 .08h23.72v103.44H0z"/><path d="M393.58 71.28c10 0 17.1 7.17 17.1 17s-7.24 17-17.1 17-16.92-7.16-16.92-16.92 7.3-17.08 16.92-17.08zm0 0c10 0 17.1 7.17 17.1 17s-7.24 17-17.1 17-16.92-7.16-16.92-16.92 7.3-17.08 16.92-17.08z" fill="#f9c806"/></svg>